# xmcd
#
# Track frame offsets:
#	150
#	17835
#	33061
#	50597
#	70712
#	87797
#	103306
#	114903
#	144454
#	164397
#	179435
#	197941
#	223285
#	240226
#
# Disc length: 3431 seconds
#
# Revision: 0
# Processed by: cddbd v1.5.2PL0 Copyright (c) Steve Scherf et al.
# Submitted via: EZCDAudioConverter 2.1.7.1
#
DISCID=c00d650e
DTITLE=V/A - Psychemagik Presents Magik Sunset 1/2
DYEAR=1900
DGENRE=
TTITLE0=Bobby Brown - My Hawaiian Home
TTITLE1=Kathy Stack - Summer Wind
TTITLE2=Mother Funk - Sunshine
TTITLE3=Jack Adkins - American Sunset
TTITLE4=Greg Sonnleitner - Misunderstood
TTITLE5=Nathan Perkins Band - Soul Keepers
TTITLE6=Crossection - Over Again
TTITLE7=Majik - Take Me There [Psychemagik Edit]
TTITLE8=Al-Dos Band - Doing Our Thing With Pride
TTITLE9=Jake Hottell - Horizon
TTITLE10=Electric Connection - Groovy
TTITLE11=Gene Lawrence - After Sunrise
TTITLE12=P'Cock - Telephone Song
TTITLE13=Terry Brooks and Strange - High Flyer
EXTD=
EXTT0=
EXTT1=
EXTT2=
EXTT3=
EXTT4=
EXTT5=
EXTT6=
EXTT7=
EXTT8=
EXTT9=
EXTT10=
EXTT11=
EXTT12=
EXTT13=
PLAYORDER=
